<svg width="215" height="80" viewBox="0 0 215 80" fill="none" xmlns="http://www.w3.org/2000/svg">
<path d="M79.2627 38.8047L71.2627 34.8047C70.8494 34.5994 70.3587 34.6221 69.9668 34.8633C69.5735 35.106 69.3335 35.5353 69.3335 35.998V38.6644H59.5663C62.1223 29.6308 53.4426 22.0274 45.0318 14.6577C42.7704 12.6777 38.2039 8.47101 37.5959 7.9057C37.5879 7.89367 37.5812 7.88695 37.58 7.8857C37.5279 7.81898 37.4559 7.72711 37.444 7.70305C37.4426 7.69898 37.3734 7.29898 38.14 5.94571C39.104 4.23899 38.6533 2.04306 37.092 0.837746C36.1653 0.12306 34.9773 -0.154283 33.828 0.0830602C32.7094 0.311029 31.752 1.00712 31.2 1.99103C28.0997 7.51008 29.5439 10.5707 30.8109 12.2385L20.4249 38.6644H12.5522L8.94285 35.055C8.69222 34.8044 8.35488 34.6644 8.00019 34.6644H1.33364C0.79505 34.6644 0.306926 34.9897 0.101614 35.4871C-0.105104 35.9856 0.00958292 36.5591 0.390988 36.9403L3.44833 39.9977L0.390988 43.0552C0.00973916 43.4366 -0.104948 44.0099 0.101614 44.5084C0.306926 45.0058 0.794894 45.3311 1.33364 45.3311H8.00035C8.35504 45.3311 8.69238 45.1911 8.943 44.9405L12.5524 41.3311H20.425L30.8073 67.7475C29.5858 69.3382 28.0556 72.4071 31.2 78.0045C31.752 78.9885 32.7094 79.6845 33.828 79.9124C34.0959 79.9671 34.3665 79.9938 34.6359 79.9938C35.5173 79.9938 36.3812 79.7045 37.0919 79.1579C38.6533 77.9526 39.1039 75.7567 38.1398 74.05C37.3772 72.7032 37.4425 72.302 37.4412 72.302C37.4559 72.2687 37.5279 72.1767 37.58 72.11L37.5959 72.09C38.2026 71.5246 42.7706 67.3193 45.0318 65.3379C53.4426 57.9684 62.1221 50.3648 59.5663 41.3313H69.3335V43.9981C69.3335 44.4608 69.5735 44.8888 69.9668 45.1314C70.1801 45.2647 70.4227 45.3314 70.6668 45.3314C70.8709 45.3314 71.0748 45.2847 71.2627 45.19L79.2627 41.19C79.7147 40.9647 80 40.5033 80 39.998C80 39.4928 79.7147 39.0314 79.2627 38.8047ZM33.5251 3.29649C33.7625 2.87384 34.1519 2.73915 34.3625 2.69649C34.7439 2.61384 35.1505 2.70977 35.4639 2.94977C35.9825 3.34977 36.1345 4.07383 35.8186 4.63243C34.3598 7.21102 34.608 8.41914 35.4826 9.53242C35.4853 9.53507 35.5612 9.63507 35.564 9.63648C35.7708 9.89648 41.6226 15.2165 43.2734 16.6632C51.6315 23.9857 59.5399 30.915 56.7637 38.6646H53.864C56.9562 32.1969 50.1092 26.1982 41.5172 18.6686C39.0172 16.478 33.3851 11.1701 33.3758 11.1701C32.4066 10.0526 30.7798 8.18054 33.5251 3.29649ZM51.2078 42.0072C53.7478 46.3766 49.6692 50.6378 39.7598 59.3219C37.9817 60.8794 34.7539 63.8867 32.8558 65.6684L23.2906 41.3311H50.8151L51.2078 42.0072ZM32.8545 14.3299C34.7165 16.0744 37.9714 19.1074 39.7598 20.674C49.6692 29.358 53.7478 33.6192 51.2078 37.9886L50.815 38.6646H23.2903L32.8545 14.3299ZM7.44832 42.6645H4.55223L6.27629 40.9405C6.7977 40.4192 6.7977 39.5764 6.27629 39.0552L4.55223 37.3311H7.44816L10.1149 39.9978L7.44832 42.6645ZM43.2731 63.3325C41.6225 64.7792 35.7705 70.0992 35.5637 70.3592C35.5611 70.3604 35.4851 70.4604 35.4823 70.4632C34.6076 71.5765 34.3597 72.7846 35.8183 75.3618C36.1342 75.9218 35.9823 76.6459 35.4636 77.0459C35.1515 77.2873 34.745 77.3806 34.3622 77.2992C34.1515 77.2565 33.7622 77.1218 33.5248 76.6992C30.7795 71.8151 32.4062 69.9432 33.2848 68.9206C33.3408 68.8673 39.0062 63.5259 41.5168 61.3273C50.1089 53.7976 56.9559 47.7991 53.8639 41.3314H56.7632C59.5396 49.0806 51.6314 56.01 43.2731 63.3325ZM72.0001 41.8408V38.1555L75.6854 39.9981L72.0001 41.8408Z" fill="white"/>
<path d="M121.92 58.3887C121.848 58.6035 121.687 58.7288 121.437 58.7646C121.186 58.8005 121.025 58.9258 120.953 59.1406C120.595 59.069 120.362 58.9616 120.255 58.8184C120.076 58.9974 119.933 59.1048 119.825 59.1406C119.718 59.1406 119.628 59.1585 119.557 59.1943C119.27 59.3018 119.055 59.445 118.912 59.624C118.805 59.5882 118.697 59.5345 118.59 59.4629C118.482 59.3913 118.357 59.3376 118.214 59.3018C117.82 59.3376 117.534 59.3734 117.354 59.4092C117.175 59.445 117.014 59.4629 116.871 59.4629C116.585 59.4629 116.334 59.445 116.119 59.4092C115.904 59.3376 115.654 59.3376 115.367 59.4092C115.224 59.4808 115.063 59.4987 114.884 59.4629C114.705 59.4271 114.544 59.4987 114.4 59.6777C114.221 59.7135 114.114 59.6956 114.078 59.624C114.042 59.5524 113.935 59.5345 113.756 59.5703C113.577 59.6777 113.362 59.7673 113.111 59.8389C112.896 59.8747 112.664 59.9284 112.413 60C112.198 59.9284 112.037 59.8031 111.93 59.624C111.858 59.4092 111.733 59.2301 111.554 59.0869C111.59 58.9079 111.59 58.7288 111.554 58.5498C111.554 58.3708 111.59 58.2454 111.661 58.1738C111.554 58.0664 111.5 57.959 111.5 57.8516C111.5 57.7083 111.482 57.5472 111.446 57.3682C111.303 57.0817 111.214 56.849 111.178 56.6699C111.106 56.3118 111.017 56.0254 110.909 55.8105C110.802 55.5957 110.784 55.3988 110.855 55.2197C110.676 55.0407 110.569 54.8438 110.533 54.6289C110.497 54.3783 110.426 54.0739 110.318 53.7158C110.211 53.5368 110.157 53.4115 110.157 53.3398C110.193 53.2324 110.193 53.1429 110.157 53.0713C109.978 52.6774 109.889 52.4089 109.889 52.2656C109.889 52.1224 109.871 51.9792 109.835 51.8359C109.692 51.5137 109.584 51.2451 109.513 51.0303C109.477 50.8154 109.423 50.6185 109.352 50.4395C109.28 50.332 109.208 50.2425 109.137 50.1709C109.065 50.0635 108.993 49.9382 108.922 49.7949C108.85 49.6517 108.814 49.5085 108.814 49.3652C108.814 49.1862 108.779 49.0251 108.707 48.8818C108.635 48.7386 108.564 48.6133 108.492 48.5059C108.456 48.3984 108.421 48.291 108.385 48.1836C108.313 47.9688 108.259 47.7539 108.224 47.5391C108.224 47.2884 108.152 47.0736 108.009 46.8945C107.794 46.8229 107.579 46.8229 107.364 46.8945C107.149 46.9661 106.952 47.0199 106.773 47.0557C106.666 47.0557 106.541 47.0557 106.397 47.0557C106.29 47.0199 106.183 47.0199 106.075 47.0557C105.825 47.0915 105.592 47.1452 105.377 47.2168C105.198 47.2526 105.001 47.2347 104.786 47.1631C104.643 47.1631 104.518 47.181 104.41 47.2168C104.339 47.2526 104.213 47.2705 104.034 47.2705C103.927 47.1989 103.73 47.181 103.443 47.2168C103.193 47.2168 102.96 47.2168 102.745 47.2168C102.494 47.2526 102.244 47.2884 101.993 47.3242C101.743 47.36 101.546 47.3421 101.402 47.2705C101.008 47.2347 100.74 47.1989 100.597 47.1631C100.453 47.1273 100.328 47.1094 100.221 47.1094C99.9342 47.0736 99.6657 47.0736 99.415 47.1094C99.1644 47.1452 98.8958 47.1273 98.6094 47.0557C98.502 47.1273 98.3766 47.181 98.2334 47.2168C98.0902 47.2526 97.9827 47.3242 97.9111 47.4316C97.5173 47.36 97.1771 47.36 96.8906 47.4316C96.64 47.5033 96.3177 47.5212 95.9238 47.4854C95.6374 47.7002 95.4941 47.9508 95.4941 48.2373C95.4941 48.5238 95.4583 48.8102 95.3867 49.0967C95.3151 49.3831 95.2077 49.6517 95.0645 49.9023C94.9212 50.1172 94.778 50.3499 94.6348 50.6006C94.5632 50.7796 94.4915 50.9587 94.4199 51.1377C94.3483 51.3167 94.2588 51.4958 94.1514 51.6748C94.0798 51.8538 94.026 51.9792 93.9902 52.0508C93.9544 52.1224 93.9186 52.194 93.8828 52.2656C93.847 52.3372 93.8112 52.373 93.7754 52.373C93.7396 52.6595 93.6859 52.8564 93.6143 52.9639C93.5426 53.0355 93.5068 53.1071 93.5068 53.1787C93.4352 53.3577 93.3994 53.5189 93.3994 53.6621C93.4352 53.8053 93.4352 53.9665 93.3994 54.1455C93.3278 54.3962 93.2204 54.611 93.0771 54.79C92.9697 54.9691 92.916 55.2018 92.916 55.4883C92.6296 55.7031 92.4147 56.0075 92.2715 56.4014C92.1283 56.7594 91.9134 57.0638 91.627 57.3145C91.5911 57.6367 91.5195 57.9411 91.4121 58.2275C91.3047 58.514 91.1794 58.8005 91.0361 59.0869C90.9287 59.3376 90.8392 59.624 90.7676 59.9463C90.696 60.2327 90.6602 60.5729 90.6602 60.9668C90.5527 61.0384 90.3737 61.1279 90.123 61.2354C89.8724 61.3786 89.6576 61.3965 89.4785 61.2891C89.1562 61.11 88.8698 60.9847 88.6191 60.9131C88.4043 60.8415 88.2074 60.752 88.0283 60.6445C87.9567 60.6087 87.7598 60.5729 87.4375 60.5371C87.1152 60.5371 86.8646 60.5371 86.6855 60.5371C86.4349 60.5729 86.2559 60.5729 86.1484 60.5371C86.041 60.5013 85.9336 60.4655 85.8262 60.4297C85.6829 60.4297 85.5397 60.4297 85.3965 60.4297C85.2891 60.4655 85.1458 60.4655 84.9668 60.4297C84.5371 60.3581 84.1253 60.2148 83.7314 60C83.3376 59.821 82.9616 59.6777 82.6035 59.5703C82.6035 59.3913 82.6214 59.248 82.6572 59.1406C82.693 58.9974 82.7467 58.8363 82.8184 58.6572C82.89 58.4782 82.9795 58.3708 83.0869 58.335C83.1943 58.2633 83.2301 58.1559 83.1943 58.0127C83.3018 57.7262 83.4271 57.4398 83.5703 57.1533C83.6777 56.8669 83.8031 56.5804 83.9463 56.2939C84.0895 55.9359 84.1969 55.721 84.2686 55.6494C84.3402 55.542 84.4118 55.4525 84.4834 55.3809C84.6266 55.0228 84.7161 54.79 84.752 54.6826C84.8236 54.5394 84.8773 54.432 84.9131 54.3604C84.9847 54.1813 85.0384 54.0381 85.0742 53.9307C85.11 53.8232 85.1995 53.68 85.3428 53.501L85.8262 52.8564C85.9336 52.4984 86.041 52.2477 86.1484 52.1045C86.2559 51.9255 86.3454 51.7822 86.417 51.6748C86.596 51.46 86.7393 51.2451 86.8467 51.0303C86.9541 50.7796 87.0794 50.5111 87.2227 50.2246C87.3659 50.0456 87.4912 49.8844 87.5986 49.7412C87.7061 49.5622 87.7956 49.3652 87.8672 49.1504C87.9388 48.8997 87.9925 48.7565 88.0283 48.7207C88.0641 48.6491 88.0999 48.5775 88.1357 48.5059C88.1715 48.291 88.1895 48.1657 88.1895 48.1299C88.2253 48.0583 88.2611 47.9867 88.2969 47.915C88.4759 47.6286 88.6191 47.3063 88.7266 46.9482C88.8698 46.5902 89.0309 46.2679 89.21 45.9814C89.2816 45.8024 89.389 45.6413 89.5322 45.498C89.7113 45.3548 89.8008 45.1579 89.8008 44.9072C89.9798 44.7998 90.1051 44.6566 90.1768 44.4775C90.2484 44.2627 90.3379 44.0658 90.4453 43.8867C90.5169 43.7077 90.6064 43.5465 90.7139 43.4033C90.8571 43.2601 90.9824 43.099 91.0898 42.9199C91.1615 42.7409 91.2331 42.5618 91.3047 42.3828C91.4121 42.168 91.5195 41.971 91.627 41.792C91.6986 41.613 91.7881 41.4518 91.8955 41.3086C92.0029 41.1296 92.1641 41.0042 92.3789 40.9326C92.3073 40.7536 92.3073 40.5745 92.3789 40.3955C92.4863 40.1807 92.5758 39.9837 92.6475 39.8047C92.7191 39.6615 92.8086 39.5361 92.916 39.4287C93.0234 39.2855 93.113 39.1423 93.1846 38.999L93.4531 38.4619C93.5964 38.1038 93.7038 37.889 93.7754 37.8174C93.8828 37.71 93.9544 37.6204 93.9902 37.5488C94.0618 37.4414 94.0798 37.334 94.0439 37.2266C94.0439 37.1191 94.0618 37.0296 94.0977 36.958C94.3125 36.8148 94.4736 36.6357 94.5811 36.4209C94.6885 36.2061 94.8138 35.9733 94.957 35.7227C95.0645 35.5436 95.1719 35.3288 95.2793 35.0781C95.3867 34.7917 95.5299 34.541 95.709 34.3262C95.6732 34.1471 95.6911 34.0039 95.7627 33.8965C95.8343 33.7533 95.9059 33.5921 95.9775 33.4131C96.0492 33.3057 96.1029 33.1982 96.1387 33.0908C96.2103 32.9476 96.2819 32.8223 96.3535 32.7148C96.6042 32.3926 96.7474 32.1061 96.7832 31.8555C96.8548 31.6048 96.9264 31.3721 96.998 31.1572C97.0697 30.9782 97.1413 30.835 97.2129 30.7275C97.3203 30.6201 97.4098 30.4948 97.4814 30.3516C97.5531 30.2083 97.6068 30.0651 97.6426 29.9219C97.6784 29.7786 97.7679 29.6712 97.9111 29.5996C97.9469 29.2415 98.0186 28.9372 98.126 28.6865C98.2692 28.4359 98.3945 28.1673 98.502 27.8809C98.6094 27.6302 98.8063 27.3796 99.0928 27.1289C99.1286 26.9141 99.1465 26.6992 99.1465 26.4844C99.1465 26.2695 99.1823 26.0726 99.2539 25.8936C99.3255 25.7145 99.415 25.5713 99.5225 25.4639C99.6299 25.3564 99.7194 25.2311 99.791 25.0879C99.9342 24.6224 100.042 24.2464 100.113 23.96C100.221 23.6377 100.328 23.3333 100.436 23.0469C100.543 22.7962 100.65 22.5098 100.758 22.1875C100.865 21.8294 100.973 21.5072 101.08 21.2207C101.188 21.0059 101.277 20.8089 101.349 20.6299C101.456 20.415 101.546 20.2002 101.617 19.9854C101.975 19.8063 102.244 19.5557 102.423 19.2334C102.602 18.9111 102.745 18.5531 102.853 18.1592C103.067 18.0876 103.211 18.0697 103.282 18.1055C103.39 18.1055 103.497 18.1055 103.604 18.1055C103.963 18.1771 104.177 18.3024 104.249 18.4814C104.321 18.6605 104.428 18.8216 104.571 18.9648C104.75 19.1797 104.876 19.3766 104.947 19.5557C105.055 19.6989 105.144 19.8421 105.216 19.9854C105.359 20.1286 105.502 20.3255 105.646 20.5762C105.825 20.8268 105.95 21.0775 106.021 21.3281C106.093 21.4714 106.165 21.6325 106.236 21.8115C106.308 21.9906 106.38 22.1696 106.451 22.3486C106.559 22.5277 106.648 22.7246 106.72 22.9395C106.827 23.1543 106.935 23.387 107.042 23.6377C107.149 23.9242 107.257 24.2643 107.364 24.6582C107.507 25.0163 107.633 25.3743 107.74 25.7324C107.812 25.9115 107.848 26.0726 107.848 26.2158C107.883 26.359 107.937 26.5023 108.009 26.6455C108.08 26.8245 108.134 26.9678 108.17 27.0752C108.242 27.1826 108.313 27.29 108.385 27.3975C108.528 27.7197 108.671 28.0778 108.814 28.4717C108.993 28.8298 109.173 29.2057 109.352 29.5996C109.423 29.707 109.477 29.8145 109.513 29.9219C109.584 30.0293 109.656 30.1546 109.728 30.2979C109.799 30.3695 109.853 30.459 109.889 30.5664C109.96 30.6738 110.032 30.7812 110.104 30.8887C110.175 30.9961 110.229 31.1214 110.265 31.2646C110.336 31.4079 110.426 31.5332 110.533 31.6406C110.641 31.8555 110.73 32.0524 110.802 32.2314C110.909 32.3747 110.999 32.5895 111.07 32.876C111.142 33.0908 111.214 33.3594 111.285 33.6816C111.393 34.0039 111.464 34.3083 111.5 34.5947C111.679 34.917 111.84 35.293 111.983 35.7227C112.162 36.1165 112.324 36.5104 112.467 36.9043C112.574 37.0117 112.664 37.1191 112.735 37.2266C112.843 37.2982 112.95 37.4056 113.058 37.5488C113.129 37.7279 113.201 37.8532 113.272 37.9248C113.344 37.9964 113.398 38.068 113.434 38.1396C113.577 38.4619 113.684 38.7842 113.756 39.1064C113.863 39.3929 113.953 39.6794 114.024 39.9658C114.096 40.1449 114.186 40.3239 114.293 40.5029C114.4 40.682 114.454 40.8968 114.454 41.1475C114.669 41.4339 114.83 41.7025 114.938 41.9531C115.045 42.168 115.134 42.3649 115.206 42.5439C115.385 42.8304 115.51 43.0452 115.582 43.1885C115.654 43.2959 115.725 43.4212 115.797 43.5645C116.048 43.8867 116.244 44.2269 116.388 44.585C116.459 44.7282 116.495 44.8893 116.495 45.0684C116.531 45.2116 116.585 45.3369 116.656 45.4443C116.728 45.695 116.817 45.9456 116.925 46.1963C117.032 46.4111 117.122 46.6618 117.193 46.9482C117.372 47.0915 117.498 47.2526 117.569 47.4316C117.677 47.6107 117.766 47.7897 117.838 47.9688C117.91 48.0762 117.981 48.2373 118.053 48.4521C118.124 48.6312 118.196 48.8102 118.268 48.9893C118.375 49.2757 118.518 49.5622 118.697 49.8486C118.876 50.1351 119.002 50.4215 119.073 50.708C119.145 50.887 119.216 51.0661 119.288 51.2451C119.396 51.4242 119.485 51.6032 119.557 51.7822C119.628 51.9613 119.646 52.1224 119.61 52.2656C119.61 52.373 119.646 52.4805 119.718 52.5879C119.789 52.7669 119.897 52.9997 120.04 53.2861C120.255 54.0023 120.506 54.7542 120.792 55.542C120.971 56.0075 121.168 56.473 121.383 56.9385C121.633 57.404 121.812 57.8874 121.92 58.3887ZM107.472 42.2217C107.543 42.0785 107.561 41.9352 107.525 41.792C107.49 41.6488 107.454 41.4876 107.418 41.3086C107.382 41.1654 107.346 41.0042 107.311 40.8252C107.311 40.6462 107.275 40.485 107.203 40.3418C107.132 40.1986 107.042 40.0911 106.935 40.0195C106.863 39.9121 106.809 39.8047 106.773 39.6973C106.702 39.196 106.63 38.7663 106.559 38.4082C106.523 38.0143 106.469 37.6204 106.397 37.2266C106.218 37.0833 106.075 36.9043 105.968 36.6895C105.753 36.403 105.61 36.1702 105.538 35.9912C105.502 35.7764 105.466 35.5794 105.431 35.4004C105.359 35.1139 105.287 34.8812 105.216 34.7021C105.144 34.4873 105.073 34.2904 105.001 34.1113C104.929 33.8249 104.876 33.5742 104.84 33.3594C104.804 33.1445 104.75 32.9297 104.679 32.7148C104.643 32.6074 104.607 32.5179 104.571 32.4463C104.535 32.3389 104.5 32.2314 104.464 32.124C104.392 31.9092 104.321 31.6764 104.249 31.4258C104.177 31.1751 104.052 31.014 103.873 30.9424C103.515 31.0856 103.318 31.3005 103.282 31.5869C103.175 31.9808 103.049 32.2493 102.906 32.3926C102.763 32.5358 102.674 32.6432 102.638 32.7148C102.566 33.1087 102.494 33.3952 102.423 33.5742C102.387 33.7174 102.333 33.8786 102.262 34.0576C102.19 34.2367 102.118 34.3978 102.047 34.541C102.011 34.6842 101.957 34.8275 101.886 34.9707C101.814 35.0781 101.743 35.1855 101.671 35.293C101.635 35.4004 101.599 35.4899 101.563 35.5615C101.241 36.1702 100.955 36.7074 100.704 37.1729C100.453 37.6025 100.239 38.0501 100.06 38.5156C99.988 38.6947 99.9342 38.8737 99.8984 39.0527C99.8626 39.196 99.8089 39.3571 99.7373 39.5361C99.6657 39.6794 99.5762 39.8047 99.4688 39.9121C99.3613 40.0195 99.2718 40.1628 99.2002 40.3418C99.1644 40.4492 99.1465 40.5566 99.1465 40.6641C99.1823 40.7357 99.1823 40.8431 99.1465 40.9863C98.8958 41.3802 98.7347 41.7025 98.6631 41.9531C98.6273 42.168 98.5736 42.3649 98.502 42.5439C98.8958 42.723 99.2897 42.8125 99.6836 42.8125C100.113 42.7767 100.525 42.7588 100.919 42.7588C101.599 42.723 102.298 42.6872 103.014 42.6514C103.73 42.5798 104.339 42.4902 104.84 42.3828C105.27 42.3112 105.717 42.3112 106.183 42.3828C106.648 42.4544 107.078 42.4007 107.472 42.2217ZM153.771 60.0537C153.663 60.2686 153.43 60.4834 153.072 60.6982C152.786 60.8415 152.589 60.9489 152.481 61.0205C152.41 61.1279 152.338 61.1816 152.267 61.1816C151.873 61.2533 151.586 61.1995 151.407 61.0205C150.906 61.1637 150.44 61.2174 150.011 61.1816C149.617 61.1458 149.223 61.1816 148.829 61.2891C148.65 61.3249 148.507 61.3786 148.399 61.4502C148.292 61.5576 148.167 61.6471 148.023 61.7188C147.809 61.7904 147.612 61.8083 147.433 61.7725C147.289 61.7725 147.11 61.7725 146.896 61.7725C146.752 61.665 146.627 61.5218 146.52 61.3428C146.448 61.1995 146.376 61.0384 146.305 60.8594C146.018 60.6445 145.803 60.4297 145.66 60.2148C145.589 60.1432 145.517 60.0537 145.445 59.9463C145.41 59.8031 145.356 59.6956 145.284 59.624C145.034 59.3018 144.837 58.9974 144.693 58.7109C144.55 58.3887 144.443 58.1201 144.371 57.9053C144.264 57.762 144.138 57.6188 143.995 57.4756C143.888 57.3324 143.78 57.1712 143.673 56.9922C143.565 56.849 143.44 56.7057 143.297 56.5625C143.154 56.3835 143.046 56.2223 142.975 56.0791C142.903 55.9359 142.867 55.8105 142.867 55.7031C142.867 55.5599 142.831 55.4167 142.76 55.2734C142.652 55.0586 142.509 54.8617 142.33 54.6826C142.187 54.5036 142.097 54.2708 142.062 53.9844C141.918 53.8411 141.775 53.6979 141.632 53.5547C141.524 53.3757 141.345 53.2503 141.095 53.1787C141.023 52.9281 140.898 52.7311 140.719 52.5879C140.576 52.4089 140.45 52.1761 140.343 51.8896C140.271 51.7822 140.164 51.5495 140.021 51.1914C139.949 51.084 139.895 50.9766 139.859 50.8691C139.859 50.7259 139.824 50.6006 139.752 50.4932C139.645 50.3141 139.483 50.1709 139.269 50.0635C139.09 49.9561 138.964 49.7591 138.893 49.4727C138.606 49.4727 138.409 49.401 138.302 49.2578C138.23 49.0788 138.069 48.9714 137.818 48.9355C137.639 48.5775 137.407 48.2552 137.12 47.9688C136.869 47.6823 136.637 47.3421 136.422 46.9482C135.921 46.6976 135.473 46.3753 135.079 45.9814C134.685 45.5876 134.22 45.2474 133.683 44.9609C133.539 44.6387 133.217 44.4417 132.716 44.3701C132.537 44.6208 132.465 44.9251 132.501 45.2832C132.537 45.6055 132.519 45.9277 132.447 46.25C132.411 46.6439 132.34 47.0378 132.232 47.4316C132.161 47.7897 132.071 48.112 131.964 48.3984C131.892 48.5775 131.91 48.7028 132.018 48.7744C132.125 48.8102 132.161 48.9176 132.125 49.0967C132.089 49.2041 132.035 49.3294 131.964 49.4727C131.928 49.6159 131.928 49.7591 131.964 49.9023C131.964 50.0814 132 50.2604 132.071 50.4395C132.179 50.5827 132.232 50.7796 132.232 51.0303C132.268 51.2809 132.232 51.6032 132.125 51.9971C132.053 52.391 132 52.7311 131.964 53.0176C132 53.304 132 53.4831 131.964 53.5547C131.964 53.6263 131.964 53.6979 131.964 53.7695C131.964 54.056 131.964 54.3066 131.964 54.5215C131.964 54.7363 131.946 54.9691 131.91 55.2197C131.946 55.6136 131.928 55.918 131.856 56.1328C131.785 56.3118 131.731 56.4909 131.695 56.6699C131.767 56.9206 131.785 57.0638 131.749 57.0996C131.713 57.1354 131.695 57.1891 131.695 57.2607C131.695 57.3682 131.713 57.4756 131.749 57.583C131.785 57.6904 131.785 57.7799 131.749 57.8516C131.713 58.2454 131.642 58.5498 131.534 58.7646C131.463 58.9795 131.463 59.2839 131.534 59.6777C131.606 59.9284 131.66 60.0895 131.695 60.1611C131.731 60.2686 131.731 60.3581 131.695 60.4297C131.66 60.6803 131.534 60.8952 131.319 61.0742C131.104 61.2533 130.997 61.4502 130.997 61.665C130.567 61.6292 130.174 61.665 129.815 61.7725C129.493 61.8799 129.171 61.8441 128.849 61.665C128.598 61.7367 128.294 61.8083 127.936 61.8799C127.577 61.9515 127.237 61.9694 126.915 61.9336C126.521 61.8262 126.253 61.7904 126.109 61.8262C126.002 61.862 125.912 61.8441 125.841 61.7725C125.769 61.0563 125.68 60.4655 125.572 60C125.465 59.5345 125.554 59.1227 125.841 58.7646C125.841 58.6572 125.823 58.5498 125.787 58.4424C125.751 58.335 125.751 58.2096 125.787 58.0664C125.823 57.6725 125.805 57.3861 125.733 57.207C125.698 57.028 125.68 56.8669 125.68 56.7236C125.715 56.5804 125.751 56.4551 125.787 56.3477C125.859 56.2402 125.895 56.1328 125.895 56.0254C125.93 55.8464 125.912 55.6673 125.841 55.4883C125.769 55.2734 125.733 55.0586 125.733 54.8438C125.733 54.6647 125.751 54.4678 125.787 54.2529C125.823 54.0381 125.841 53.8411 125.841 53.6621C125.841 53.4831 125.787 53.2861 125.68 53.0713C125.608 52.8564 125.644 52.6416 125.787 52.4268C125.859 52.2835 125.877 52.0687 125.841 51.7822C125.841 51.4958 125.841 51.2093 125.841 50.9229C125.841 50.7438 125.841 50.5827 125.841 50.4395C125.877 50.2962 125.912 50.1351 125.948 49.9561C125.948 49.7412 125.93 49.5443 125.895 49.3652C125.895 49.1504 125.895 48.9535 125.895 48.7744C125.895 48.7028 125.912 48.6133 125.948 48.5059C125.984 48.3626 125.984 48.2552 125.948 48.1836C125.877 47.8613 125.841 47.6107 125.841 47.4316C125.877 47.2526 125.895 47.1094 125.895 47.002C125.93 46.8229 125.93 46.6439 125.895 46.4648C125.895 46.25 125.912 46.0173 125.948 45.7666C125.948 45.6234 125.93 45.4801 125.895 45.3369C125.859 45.1937 125.859 45.0326 125.895 44.8535C125.93 44.5312 125.93 44.3164 125.895 44.209C125.859 44.1016 125.823 43.9941 125.787 43.8867C125.787 43.7793 125.805 43.6719 125.841 43.5645C125.877 43.457 125.895 43.3317 125.895 43.1885C125.895 42.902 125.859 42.5798 125.787 42.2217C125.715 41.8636 125.68 41.5413 125.68 41.2549C125.751 40.5387 125.715 40.1449 125.572 40.0732C125.644 39.8942 125.698 39.7331 125.733 39.5898C125.769 39.4466 125.805 39.2855 125.841 39.1064C125.841 38.8558 125.823 38.6051 125.787 38.3545C125.751 38.1038 125.769 37.7816 125.841 37.3877C125.877 37.3161 125.912 37.2266 125.948 37.1191C126.02 37.0117 126.056 36.9043 126.056 36.7969C126.056 36.6536 126.038 36.5104 126.002 36.3672C125.966 36.224 125.966 36.0628 126.002 35.8838C126.002 35.5615 126.02 35.2214 126.056 34.8633C126.091 34.5052 126.145 34.1471 126.217 33.7891C126.288 33.4668 126.306 33.234 126.271 33.0908C126.235 32.9476 126.217 32.8223 126.217 32.7148C126.217 32.4642 126.253 32.2314 126.324 32.0166C126.396 31.8018 126.396 31.5511 126.324 31.2646C126.324 31.193 126.306 31.1035 126.271 30.9961C126.271 30.8529 126.271 30.6917 126.271 30.5127C126.306 30.1546 126.306 29.904 126.271 29.7607C126.235 29.5817 126.217 29.4206 126.217 29.2773C126.288 28.9909 126.306 28.8298 126.271 28.7939C126.235 28.7581 126.217 28.7044 126.217 28.6328C126.288 28.4896 126.306 28.4001 126.271 28.3643C126.235 28.2926 126.217 28.1852 126.217 28.042C126.253 27.7555 126.271 27.5228 126.271 27.3438C126.306 27.1289 126.306 26.8424 126.271 26.4844C126.199 26.2337 126.181 26.0905 126.217 26.0547C126.288 26.0189 126.306 25.9652 126.271 25.8936C126.271 25.7861 126.235 25.6608 126.163 25.5176C126.091 25.3743 126.02 25.2311 125.948 25.0879C126.02 24.873 126.038 24.6224 126.002 24.3359C125.966 24.0495 125.966 23.763 126.002 23.4766C126.002 23.4049 126.02 23.3154 126.056 23.208C126.091 23.0648 126.109 22.9574 126.109 22.8857C126.002 22.5993 125.93 22.4023 125.895 22.2949C125.895 22.1517 125.877 22.0443 125.841 21.9727C125.805 21.8294 125.751 21.6862 125.68 21.543C125.608 21.3997 125.572 21.2744 125.572 21.167C125.572 20.9521 125.626 20.7552 125.733 20.5762C125.841 20.3971 125.948 20.2181 126.056 20.0391C126.127 19.9674 126.199 19.9137 126.271 19.8779C126.378 19.8063 126.503 19.7884 126.646 19.8242C126.718 19.7526 126.79 19.681 126.861 19.6094C126.969 19.502 127.076 19.4124 127.184 19.3408C127.47 19.2692 127.685 19.305 127.828 19.4482C128.007 19.5557 128.186 19.6452 128.365 19.7168C128.652 19.6452 128.956 19.6273 129.278 19.6631C129.601 19.6631 129.959 19.6273 130.353 19.5557C130.675 19.484 130.908 19.4661 131.051 19.502C131.194 19.502 131.301 19.502 131.373 19.502C131.839 19.3945 132.215 19.3408 132.501 19.3408C132.787 19.3408 133.038 19.3587 133.253 19.3945C133.539 19.3945 133.701 19.4124 133.736 19.4482C133.808 19.484 133.88 19.502 133.951 19.502C134.13 19.4303 134.291 19.4303 134.435 19.502C134.578 19.5378 134.721 19.5736 134.864 19.6094C135.151 19.6452 135.437 19.6631 135.724 19.6631C136.01 19.6631 136.297 19.681 136.583 19.7168C136.869 19.7526 137.156 19.7884 137.442 19.8242C137.765 19.86 138.069 19.9316 138.355 20.0391C138.463 20.0749 138.57 20.1286 138.678 20.2002C138.785 20.2718 138.893 20.3255 139 20.3613C139.143 20.3971 139.304 20.415 139.483 20.415C139.698 20.3792 139.895 20.3971 140.074 20.4688C140.468 20.5404 140.844 20.6657 141.202 20.8447C141.596 20.988 141.99 21.0954 142.384 21.167C142.563 21.2386 142.76 21.3102 142.975 21.3818C143.189 21.4176 143.386 21.5072 143.565 21.6504C144.067 21.6504 144.514 21.7041 144.908 21.8115C145.302 21.8831 145.642 21.9906 145.929 22.1338C146.108 22.2054 146.305 22.277 146.52 22.3486C146.77 22.4202 146.967 22.5277 147.11 22.6709C147.289 22.8141 147.451 22.9395 147.594 23.0469C147.737 23.1543 147.88 23.2796 148.023 23.4229C148.238 23.6019 148.364 23.7451 148.399 23.8525C148.471 23.9242 148.543 23.9958 148.614 24.0674C148.829 24.2464 148.954 24.3896 148.99 24.4971C149.062 24.6045 149.133 24.6761 149.205 24.7119C149.384 24.8193 149.509 24.9268 149.581 25.0342C149.688 25.1058 149.796 25.1595 149.903 25.1953C149.975 25.4818 150.1 25.6966 150.279 25.8398C150.494 25.9831 150.691 26.1442 150.87 26.3232C151.049 26.6455 151.157 26.8962 151.192 27.0752C151.228 27.2542 151.318 27.3796 151.461 27.4512C151.64 28.0599 151.747 28.597 151.783 29.0625C151.819 29.528 151.98 29.8861 152.267 30.1367C152.231 30.4232 152.249 30.6917 152.32 30.9424C152.428 31.1572 152.535 31.39 152.643 31.6406C152.571 31.8197 152.553 31.9987 152.589 32.1777C152.625 32.321 152.643 32.4821 152.643 32.6611C152.643 32.8402 152.589 33.0192 152.481 33.1982C152.41 33.3773 152.446 33.5384 152.589 33.6816C152.446 34.1113 152.302 34.5589 152.159 35.0244C152.052 35.4541 151.873 35.8659 151.622 36.2598C151.55 36.3314 151.497 36.4209 151.461 36.5283C151.425 36.5999 151.318 36.6357 151.139 36.6357C151.174 36.8506 151.139 37.0117 151.031 37.1191C150.924 37.1908 150.87 37.3161 150.87 37.4951C150.584 37.6742 150.351 37.8532 150.172 38.0322C150.029 38.1755 149.868 38.3903 149.688 38.6768C149.581 38.82 149.474 38.9274 149.366 38.999C149.295 39.0706 149.169 39.1602 148.99 39.2676C148.704 39.4466 148.489 39.5719 148.346 39.6436C148.202 39.7152 148.077 39.7868 147.97 39.8584C147.719 39.9658 147.558 40.0553 147.486 40.127C147.451 40.1986 147.397 40.2523 147.325 40.2881C147.218 40.3597 147.092 40.4313 146.949 40.5029C146.842 40.5387 146.734 40.5924 146.627 40.6641C146.412 40.8431 146.251 40.9505 146.144 40.9863C146.072 41.0221 146.018 41.0579 145.982 41.0938C145.66 41.237 145.302 41.3802 144.908 41.5234C144.55 41.6309 144.192 41.8099 143.834 42.0605C143.655 41.9889 143.476 42.0068 143.297 42.1143C143.118 42.2217 142.921 42.3112 142.706 42.3828C142.42 42.4544 142.169 42.4902 141.954 42.4902C141.775 42.4544 141.65 42.5798 141.578 42.8662C141.507 43.1169 141.578 43.2959 141.793 43.4033C142.044 43.5107 142.276 43.654 142.491 43.833C142.563 44.012 142.652 44.1911 142.76 44.3701C142.903 44.5133 143.082 44.6208 143.297 44.6924C143.583 44.9788 143.744 45.2295 143.78 45.4443C143.852 45.6592 144.031 45.7845 144.317 45.8203C144.389 45.9993 144.532 46.2321 144.747 46.5186C144.998 46.7334 145.123 46.8766 145.123 46.9482C145.159 47.0199 145.195 47.0915 145.23 47.1631C145.41 47.4495 145.535 47.6107 145.606 47.6465C145.678 47.6823 145.714 47.736 145.714 47.8076C145.857 48.0225 146 48.2552 146.144 48.5059C146.323 48.7565 146.448 49.0251 146.52 49.3115C146.627 49.4189 146.734 49.5264 146.842 49.6338C146.949 49.7412 147.075 49.8486 147.218 49.9561C147.218 50.0993 147.236 50.2067 147.271 50.2783C147.343 50.3499 147.379 50.4574 147.379 50.6006C147.594 50.8512 147.826 51.1019 148.077 51.3525C148.328 51.6032 148.507 51.9255 148.614 52.3193C148.722 52.391 148.811 52.4805 148.883 52.5879C148.954 52.6595 149.062 52.7132 149.205 52.749C149.312 53.1071 149.474 53.4294 149.688 53.7158C149.939 53.9665 150.172 54.2529 150.387 54.5752C150.494 54.7542 150.655 54.9333 150.87 55.1123C151.013 55.2913 151.139 55.4883 151.246 55.7031C151.354 55.8822 151.479 56.0612 151.622 56.2402C151.801 56.5267 151.926 56.7773 151.998 56.9922C152.105 57.1712 152.249 57.2965 152.428 57.3682C152.464 57.5472 152.517 57.6904 152.589 57.7979C152.696 57.8695 152.732 58.0127 152.696 58.2275C152.84 58.2992 152.983 58.3887 153.126 58.4961C153.269 58.5677 153.43 58.6393 153.609 58.7109C153.681 58.9974 153.735 59.248 153.771 59.4629C153.842 59.6419 153.842 59.8389 153.771 60.0537ZM146.305 31.5869C146.126 31.2288 146.018 30.9782 145.982 30.835C145.982 30.6917 145.965 30.5843 145.929 30.5127C145.893 30.4053 145.821 30.3158 145.714 30.2441C145.642 30.1725 145.571 30.083 145.499 29.9756C145.32 29.6175 145.159 29.3848 145.016 29.2773C144.908 29.2057 144.819 29.1162 144.747 29.0088C144.675 28.8656 144.586 28.776 144.479 28.7402C144.192 28.5254 143.995 28.3464 143.888 28.2031C143.816 28.0599 143.691 28.0062 143.512 28.042C143.44 27.8271 143.279 27.7018 143.028 27.666C142.813 27.5944 142.67 27.4512 142.599 27.2363C142.312 27.2005 142.079 27.1289 141.9 27.0215C141.721 26.9141 141.524 26.7887 141.31 26.6455C141.202 26.6813 141.095 26.735 140.987 26.8066C140.916 26.8783 140.79 26.8962 140.611 26.8604C140.432 26.8245 140.271 26.7708 140.128 26.6992C140.021 26.6276 139.877 26.5739 139.698 26.5381C139.304 26.5739 139.018 26.5739 138.839 26.5381C138.66 26.4665 138.517 26.4307 138.409 26.4307C138.051 26.2874 137.765 26.2158 137.55 26.2158C137.263 26.18 136.959 26.1979 136.637 26.2695C136.314 26.3053 135.992 26.3411 135.67 26.377C135.061 26.377 134.47 26.3411 133.897 26.2695C133.325 26.1979 132.752 26.1979 132.179 26.2695C132.107 26.4128 132.107 26.5381 132.179 26.6455C132.286 26.7171 132.34 26.8424 132.34 27.0215C132.304 27.4154 132.304 27.7018 132.34 27.8809C132.376 28.0241 132.394 28.1673 132.394 28.3105C132.322 28.597 132.304 28.776 132.34 28.8477C132.376 28.9193 132.394 28.973 132.394 29.0088V29.9219C132.322 30.3874 132.286 30.8529 132.286 31.3184C132.322 31.748 132.322 32.1956 132.286 32.6611C132.286 33.1982 132.268 33.6816 132.232 34.1113C132.232 34.5052 132.215 34.917 132.179 35.3467C132.215 35.7406 132.197 36.0091 132.125 36.1523C132.089 36.2598 132.071 36.3851 132.071 36.5283C132.035 36.8864 132.071 37.2803 132.179 37.71C132.573 37.8174 132.949 37.8711 133.307 37.8711C133.701 37.8711 133.987 37.8711 134.166 37.8711C134.417 37.9069 134.56 37.9248 134.596 37.9248C134.667 37.889 134.775 37.8711 134.918 37.8711C135.276 37.9069 135.598 37.9606 135.885 38.0322C136.207 38.068 136.547 38.0501 136.905 37.9785C137.084 37.9785 137.245 37.9785 137.389 37.9785C137.568 37.9427 137.747 37.9069 137.926 37.8711C138.212 37.7637 138.409 37.71 138.517 37.71C138.66 37.71 138.767 37.71 138.839 37.71C139.233 37.5667 139.501 37.4951 139.645 37.4951C139.788 37.4593 139.895 37.4235 139.967 37.3877C140.683 37.1012 141.202 36.9043 141.524 36.7969C142.026 36.6178 142.402 36.4925 142.652 36.4209C142.939 36.3493 143.189 36.2956 143.404 36.2598C143.512 35.9375 143.727 35.7406 144.049 35.6689C144.371 35.5973 144.568 35.3646 144.64 34.9707C144.747 34.8991 144.854 34.8633 144.962 34.8633C145.105 34.8633 145.195 34.7917 145.23 34.6484C145.338 34.3262 145.445 33.986 145.553 33.6279C145.66 33.2699 145.803 32.9655 145.982 32.7148C145.947 32.4284 145.965 32.2493 146.036 32.1777C146.144 32.0703 146.233 31.8734 146.305 31.5869ZM199.801 38.3008C199.801 38.4798 199.765 38.6768 199.693 38.8916C199.658 39.0706 199.64 39.2497 199.64 39.4287C199.568 39.7868 199.532 40.1449 199.532 40.5029C199.568 40.861 199.55 41.2012 199.479 41.5234C199.443 41.9889 199.425 42.347 199.425 42.5977C199.425 42.8125 199.407 42.9915 199.371 43.1348C199.335 43.278 199.282 43.4212 199.21 43.5645C199.174 43.6719 199.138 43.7972 199.103 43.9404C199.031 44.2627 198.977 44.6208 198.941 45.0146C198.941 45.3727 198.888 45.695 198.78 45.9814C198.709 46.0889 198.619 46.2142 198.512 46.3574C198.44 46.4648 198.368 46.5902 198.297 46.7334C198.225 46.8766 198.172 47.0199 198.136 47.1631C198.1 47.3063 198.046 47.4674 197.975 47.6465C197.867 47.9329 197.742 48.2015 197.599 48.4521C197.455 48.7028 197.312 48.9535 197.169 49.2041C196.99 49.598 196.829 49.9023 196.686 50.1172C196.542 50.332 196.399 50.529 196.256 50.708C196.077 50.9229 195.916 51.1556 195.772 51.4062C195.665 51.6569 195.486 51.8717 195.235 52.0508C195.2 52.2298 195.128 52.391 195.021 52.5342C194.949 52.6416 194.877 52.7848 194.806 52.9639C194.627 53.3577 194.465 53.6263 194.322 53.7695C194.179 53.877 194.072 54.056 194 54.3066C194.215 54.7721 194.394 55.1123 194.537 55.3271C194.716 55.542 194.841 55.7926 194.913 56.0791C195.056 56.1507 195.164 56.2581 195.235 56.4014C195.307 56.5088 195.396 56.652 195.504 56.8311C195.683 57.1175 195.844 57.3503 195.987 57.5293C196.131 57.6725 196.238 57.8516 196.31 58.0664C196.489 58.138 196.632 58.2454 196.739 58.3887C196.847 58.4961 196.99 58.6214 197.169 58.7646C197.312 58.9437 197.384 59.0511 197.384 59.0869C197.42 59.0869 197.491 59.1764 197.599 59.3555C197.778 59.6419 197.957 59.9463 198.136 60.2686C198.351 60.5908 198.565 60.9131 198.78 61.2354C198.852 61.3786 198.888 61.6471 198.888 62.041C198.924 62.1842 199.013 62.2559 199.156 62.2559C199.299 62.2917 199.425 62.3633 199.532 62.4707C199.783 62.6855 199.926 62.9899 199.962 63.3838C199.998 63.8135 199.854 64.1895 199.532 64.5117C199.174 64.5833 198.798 64.6012 198.404 64.5654C198.01 64.5296 197.617 64.5296 197.223 64.5654C196.721 64.6012 196.256 64.6729 195.826 64.7803C195.432 64.8877 195.056 64.9056 194.698 64.834C194.519 64.8698 194.394 64.9414 194.322 65.0488C194.286 65.1562 194.143 65.1742 193.893 65.1025C193.606 64.9951 193.409 64.8161 193.302 64.5654C193.23 64.3148 193.141 64.082 193.033 63.8672C192.962 63.6882 192.854 63.5091 192.711 63.3301C192.604 63.1868 192.496 63.0257 192.389 62.8467C192.245 62.6676 192.12 62.4886 192.013 62.3096C191.905 62.1663 191.78 62.0231 191.637 61.8799C191.207 61.307 190.706 60.8057 190.133 60.376C189.99 60.0179 189.703 59.7314 189.273 59.5166C189.202 59.3376 189.112 59.1585 189.005 58.9795C188.933 58.8005 188.808 58.6572 188.629 58.5498C188.45 58.6214 188.307 58.7467 188.199 58.9258C188.092 59.069 188.002 59.2301 187.931 59.4092C187.644 59.445 187.447 59.5345 187.34 59.6777C187.232 59.7852 187.053 59.8926 186.803 60C186.194 60.2148 185.639 60.3044 185.138 60.2686C184.672 60.2327 184.225 60.2507 183.795 60.3223C183.652 60.3581 183.526 60.4118 183.419 60.4834C183.347 60.555 183.24 60.6266 183.097 60.6982C182.739 60.7699 182.47 60.8236 182.291 60.8594C182.148 60.931 181.969 60.9847 181.754 61.0205C181.575 61.0205 181.396 60.9847 181.217 60.9131C181.038 60.8773 180.859 60.8594 180.68 60.8594C180.357 60.8952 180.053 60.931 179.767 60.9668C179.516 61.0026 179.194 60.9847 178.8 60.9131C178.549 60.9131 178.352 60.8236 178.209 60.6445C177.923 60.752 177.654 60.8057 177.403 60.8057C177.188 60.8057 176.956 60.752 176.705 60.6445C176.49 60.5729 176.257 60.5371 176.007 60.5371C175.685 60.5013 175.398 60.4834 175.147 60.4834C174.897 60.5192 174.682 60.4297 174.503 60.2148C174.216 60.2507 173.984 60.2327 173.805 60.1611C173.626 60.0895 173.411 60.0179 173.16 59.9463C172.802 59.8747 172.48 59.8031 172.193 59.7314C171.907 59.6598 171.62 59.5524 171.334 59.4092C171.083 59.2301 170.797 59.0869 170.475 58.9795C170.188 58.8721 169.973 58.693 169.83 58.4424C169.651 58.4424 169.418 58.3708 169.132 58.2275C169.024 58.1917 168.899 58.1738 168.756 58.1738C168.613 58.138 168.487 58.1022 168.38 58.0664C168.201 57.9948 168.022 57.8874 167.843 57.7441C167.7 57.6009 167.503 57.5293 167.252 57.5293C167.037 57.207 166.769 56.9385 166.446 56.7236C166.303 56.5446 166.16 56.4193 166.017 56.3477C165.873 56.2402 165.766 56.0791 165.694 55.8643C165.587 55.8285 165.479 55.7747 165.372 55.7031C165.3 55.6315 165.211 55.5599 165.104 55.4883C164.817 55.2734 164.638 55.1302 164.566 55.0586C164.495 54.987 164.423 54.8975 164.352 54.79C163.993 54.3962 163.707 54.0739 163.492 53.8232C163.277 53.5726 163.062 53.3398 162.848 53.125C162.669 52.9102 162.525 52.7848 162.418 52.749C162.346 52.7132 162.293 52.6595 162.257 52.5879C162.078 52.3014 161.97 52.1045 161.935 51.9971C161.899 51.8538 161.845 51.7464 161.773 51.6748C161.702 51.5674 161.612 51.46 161.505 51.3525C161.433 51.2451 161.326 51.1556 161.183 51.084C161.111 50.7975 161.021 50.5648 160.914 50.3857C160.842 50.2067 160.771 49.9919 160.699 49.7412C160.52 49.4189 160.323 49.222 160.108 49.1504C160.037 48.8997 159.911 48.6849 159.732 48.5059C159.589 48.291 159.482 48.0404 159.41 47.7539C159.339 47.5391 159.303 47.3242 159.303 47.1094C159.088 47.0378 158.945 46.8945 158.873 46.6797C158.801 46.4648 158.73 46.2321 158.658 45.9814C158.479 45.6592 158.372 45.3727 158.336 45.1221C158.336 44.8356 158.246 44.6029 158.067 44.4238C158.067 44.1374 158.049 43.9762 158.014 43.9404C157.978 43.9046 157.942 43.8688 157.906 43.833C157.87 43.7256 157.853 43.6182 157.853 43.5107C157.853 43.3675 157.817 43.2422 157.745 43.1348C157.709 43.0632 157.674 42.9736 157.638 42.8662C157.602 42.723 157.566 42.5798 157.53 42.4365C157.423 42.1501 157.351 41.8278 157.315 41.4697C157.315 41.0758 157.315 40.6641 157.315 40.2344C157.315 40.127 157.333 40.0195 157.369 39.9121C157.405 39.8047 157.423 39.7152 157.423 39.6436C157.423 39.2855 157.441 38.9453 157.477 38.623C157.548 38.3008 157.566 37.9785 157.53 37.6562C157.709 37.4772 157.799 37.2087 157.799 36.8506C157.799 36.4925 157.87 36.1702 158.014 35.8838C158.085 35.3467 158.085 34.8812 158.014 34.4873C157.978 34.0934 157.996 33.6995 158.067 33.3057C158.103 33.1624 158.175 33.055 158.282 32.9834C158.39 32.876 158.408 32.7327 158.336 32.5537C158.551 32.5537 158.658 32.4463 158.658 32.2314C158.658 31.9808 158.748 31.8555 158.927 31.8555C158.998 30.8529 159.303 30.1546 159.84 29.7607C159.84 29.5101 159.894 29.3311 160.001 29.2236C160.108 29.1162 160.234 28.9909 160.377 28.8477C160.305 28.6328 160.323 28.5075 160.431 28.4717C160.574 28.4001 160.61 28.2747 160.538 28.0957C160.61 28.0241 160.681 27.9525 160.753 27.8809C160.86 27.7734 160.95 27.666 161.021 27.5586C161.057 27.4154 161.075 27.3258 161.075 27.29C161.111 27.2184 161.183 27.111 161.29 26.9678C161.469 26.6813 161.666 26.4307 161.881 26.2158C162.132 26.001 162.364 25.7861 162.579 25.5713C162.937 25.1774 163.242 24.8551 163.492 24.6045C163.743 24.3538 163.94 24.0853 164.083 23.7988C164.262 23.7988 164.387 23.763 164.459 23.6914C164.531 23.6198 164.602 23.5482 164.674 23.4766C164.781 23.3691 164.924 23.2617 165.104 23.1543C165.283 23.0469 165.462 22.9215 165.641 22.7783C165.82 22.7067 165.945 22.6351 166.017 22.5635C166.088 22.4919 166.16 22.4202 166.231 22.3486C166.59 22.1696 166.804 22.0264 166.876 21.9189C166.948 21.8115 167.055 21.7757 167.198 21.8115C167.377 21.5609 167.628 21.3818 167.95 21.2744C168.272 21.167 168.613 21.0417 168.971 20.8984C169.293 20.7552 169.597 20.6299 169.884 20.5225C170.206 20.3792 170.493 20.2002 170.743 19.9854C171.137 19.9137 171.495 19.8421 171.817 19.7705C172.14 19.6989 172.498 19.6452 172.892 19.6094C173.285 19.6094 173.626 19.5915 173.912 19.5557C174.234 19.5199 174.539 19.4661 174.825 19.3945C175.004 19.3587 175.326 19.3587 175.792 19.3945C176.257 19.3945 176.633 19.3945 176.92 19.3945C177.206 19.3945 177.385 19.4124 177.457 19.4482C177.529 19.4482 177.6 19.4482 177.672 19.4482C178.173 19.4482 178.657 19.4303 179.122 19.3945C179.588 19.3229 180.035 19.3766 180.465 19.5557C180.536 19.484 180.644 19.4482 180.787 19.4482C180.93 19.4124 181.056 19.3587 181.163 19.2871C181.664 19.3945 182.166 19.484 182.667 19.5557C183.204 19.5915 183.616 19.7705 183.902 20.0928C184.225 20.0212 184.547 20.0391 184.869 20.1465C185.227 20.2539 185.549 20.3613 185.836 20.4688C185.943 20.5404 186.051 20.5941 186.158 20.6299C186.301 20.6657 186.391 20.7373 186.427 20.8447C186.642 20.7731 186.892 20.791 187.179 20.8984C187.465 20.9701 187.752 20.988 188.038 20.9521C188.325 21.0954 188.521 21.1849 188.629 21.2207C188.772 21.2207 188.897 21.2207 189.005 21.2207C189.291 21.5072 189.596 21.7399 189.918 21.9189C190.24 22.0622 190.491 22.3307 190.67 22.7246C190.849 22.6888 190.974 22.7067 191.046 22.7783C191.153 22.8141 191.279 22.832 191.422 22.832C191.529 22.9036 191.619 22.9753 191.69 23.0469C191.798 23.1185 191.905 23.1901 192.013 23.2617C192.192 23.4049 192.335 23.5303 192.442 23.6377C192.586 23.7451 192.747 23.8883 192.926 24.0674C193.105 24.2464 193.212 24.4434 193.248 24.6582C193.32 24.8372 193.445 25.07 193.624 25.3564C193.696 25.5355 193.821 25.7145 194 25.8936C194.179 26.0726 194.286 26.2695 194.322 26.4844C194.43 26.556 194.519 26.6455 194.591 26.7529C194.698 26.8604 194.806 26.9678 194.913 27.0752C195.021 27.2184 195.11 27.3258 195.182 27.3975C195.289 27.4691 195.379 27.5407 195.45 27.6123C195.629 27.8988 195.826 28.1673 196.041 28.418C196.292 28.6328 196.524 28.9193 196.739 29.2773C196.882 29.528 197.008 29.7607 197.115 29.9756C197.258 30.1904 197.384 30.3874 197.491 30.5664C197.706 31.0319 197.831 31.4079 197.867 31.6943C197.903 31.9808 197.993 32.2673 198.136 32.5537C198.422 32.9476 198.637 33.3594 198.78 33.7891C198.924 34.2188 199.085 34.5768 199.264 34.8633V35.4541C199.407 35.5973 199.461 35.7585 199.425 35.9375C199.425 36.0807 199.461 36.2419 199.532 36.4209C199.64 36.5283 199.693 36.6536 199.693 36.7969C199.729 36.9401 199.747 37.0654 199.747 37.1729C199.747 37.5309 199.747 37.7816 199.747 37.9248C199.783 38.068 199.801 38.1934 199.801 38.3008ZM193.194 39.9658C193.159 39.5719 193.123 39.3034 193.087 39.1602C193.051 38.9811 193.033 38.8379 193.033 38.7305C193.069 38.5872 193.105 38.4619 193.141 38.3545C193.176 38.2113 193.176 38.068 193.141 37.9248C193.105 37.6383 192.997 37.3877 192.818 37.1729C192.639 36.958 192.496 36.7074 192.389 36.4209C192.317 35.9196 192.245 35.5436 192.174 35.293C192.102 35.0065 192.084 34.7201 192.12 34.4336C191.869 34.2546 191.69 34.0218 191.583 33.7354C191.476 33.4131 191.386 33.1087 191.314 32.8223C191.207 32.7148 191.082 32.6253 190.938 32.5537C190.795 32.4463 190.67 32.3568 190.562 32.2852C190.312 31.9987 190.133 31.7839 190.025 31.6406C189.954 31.4974 189.882 31.3721 189.811 31.2646C189.632 31.014 189.47 30.8887 189.327 30.8887C189.22 30.8529 189.148 30.7992 189.112 30.7275C189.041 30.4411 188.88 30.2083 188.629 30.0293C188.414 29.8503 188.253 29.6175 188.146 29.3311C187.895 29.2594 187.698 29.152 187.555 29.0088C187.411 28.8298 187.215 28.7044 186.964 28.6328C186.785 28.3105 186.552 28.0778 186.266 27.9346C185.979 27.7555 185.693 27.5765 185.406 27.3975C185.299 27.3258 185.174 27.2721 185.03 27.2363C184.887 27.2005 184.78 27.111 184.708 26.9678C184.565 26.932 184.35 26.9141 184.063 26.9141C183.849 26.6992 183.562 26.556 183.204 26.4844C182.882 26.4128 182.524 26.359 182.13 26.3232C181.915 26.1084 181.682 25.9831 181.432 25.9473C181.145 25.8757 180.859 25.8757 180.572 25.9473C180.286 26.0189 180.071 25.9831 179.928 25.8398C179.104 25.804 178.46 25.804 177.994 25.8398C177.564 25.8757 177.153 25.9294 176.759 26.001C176.58 26.001 176.454 25.9473 176.383 25.8398C176.347 25.7324 176.24 25.6966 176.061 25.7324C175.488 26.2337 175.183 26.4844 175.147 26.4844C174.897 26.556 174.682 26.6097 174.503 26.6455C174.324 26.6813 174.163 26.735 174.02 26.8066C173.697 26.9141 173.429 27.0752 173.214 27.29C172.999 27.4691 172.713 27.5228 172.354 27.4512C172.175 27.7734 171.835 27.9346 171.334 27.9346C171.155 28.1494 170.94 28.2926 170.689 28.3643C170.475 28.4359 170.26 28.5254 170.045 28.6328C169.83 28.7402 169.633 28.8835 169.454 29.0625C169.275 29.2057 169.042 29.2952 168.756 29.3311C168.505 30.0472 168.058 30.4769 167.413 30.6201C167.234 30.835 167.037 31.0856 166.822 31.3721C166.643 31.6227 166.446 31.8734 166.231 32.124C166.231 32.3031 166.196 32.4642 166.124 32.6074C166.088 32.7148 166.088 32.8581 166.124 33.0371C166.052 33.1087 165.981 33.1982 165.909 33.3057C165.873 33.4131 165.82 33.5026 165.748 33.5742C165.82 33.8965 165.766 34.165 165.587 34.3799C165.408 34.5947 165.283 34.8275 165.211 35.0781C165.139 35.2214 165.104 35.3825 165.104 35.5615C165.139 35.7406 165.139 35.9196 165.104 36.0986C165.032 36.2419 164.96 36.3672 164.889 36.4746C164.853 36.582 164.835 36.6895 164.835 36.7969C164.763 37.0475 164.728 37.2982 164.728 37.5488C164.763 37.7637 164.745 38.0143 164.674 38.3008C164.531 38.5872 164.459 38.7842 164.459 38.8916C164.459 38.9632 164.441 39.0169 164.405 39.0527C164.262 39.3034 164.173 39.5003 164.137 39.6436C164.137 39.751 164.119 39.8584 164.083 39.9658C164.011 40.3955 164.011 40.6999 164.083 40.8789C164.155 41.0221 164.226 41.1654 164.298 41.3086C164.369 41.4518 164.423 41.5951 164.459 41.7383C164.495 41.8815 164.549 42.0247 164.62 42.168C164.692 42.3112 164.745 42.4544 164.781 42.5977C164.817 42.7409 164.871 42.902 164.942 43.0811C165.014 43.2601 165.05 43.4212 165.05 43.5645C165.05 43.7077 165.086 43.8688 165.157 44.0479C165.336 44.2627 165.426 44.388 165.426 44.4238C165.426 44.4596 165.462 44.5133 165.533 44.585C165.605 44.6566 165.659 44.7461 165.694 44.8535C165.766 44.9609 165.838 45.0684 165.909 45.1758C166.052 45.3548 166.196 45.5339 166.339 45.7129C166.482 45.8919 166.607 46.071 166.715 46.25C166.822 46.3574 166.948 46.5544 167.091 46.8408C167.198 47.0915 167.306 47.3421 167.413 47.5928C167.521 47.8076 167.538 48.0404 167.467 48.291C167.646 48.3984 167.771 48.5417 167.843 48.7207C167.95 48.8997 168.058 49.0788 168.165 49.2578C168.272 49.3652 168.434 49.4906 168.648 49.6338C168.827 49.8486 168.989 50.0456 169.132 50.2246C169.311 50.3678 169.454 50.529 169.562 50.708C169.848 50.8154 170.081 51.0303 170.26 51.3525C170.725 51.5316 171.101 51.6748 171.388 51.7822C171.71 51.8538 171.996 51.9792 172.247 52.1582C172.534 52.373 172.73 52.4984 172.838 52.5342C172.981 52.57 173.106 52.6237 173.214 52.6953C173.393 52.7669 173.572 52.8385 173.751 52.9102C173.966 52.946 174.181 52.9997 174.396 53.0713C174.467 53.0713 174.557 53.0713 174.664 53.0713C174.771 53.0355 174.879 53.0355 174.986 53.0713C175.201 53.1071 175.416 53.1787 175.631 53.2861C175.882 53.3936 176.114 53.4652 176.329 53.501C176.544 53.5726 176.759 53.5726 176.974 53.501C177.188 53.4294 177.403 53.4115 177.618 53.4473C178.012 53.5905 178.281 53.68 178.424 53.7158C178.603 53.7158 178.728 53.7516 178.8 53.8232C178.871 53.68 178.979 53.6263 179.122 53.6621C179.265 53.6979 179.426 53.6979 179.605 53.6621C179.749 53.6621 179.892 53.6442 180.035 53.6084C180.178 53.5726 180.34 53.5368 180.519 53.501C180.805 53.5726 181.002 53.5905 181.109 53.5547C181.217 53.5189 181.306 53.4831 181.378 53.4473C181.485 53.4473 181.593 53.4652 181.7 53.501C181.843 53.501 181.969 53.501 182.076 53.501C182.47 53.4294 182.721 53.3398 182.828 53.2324C182.936 53.0892 182.989 52.9997 182.989 52.9639C182.81 52.4984 182.649 52.1403 182.506 51.8896C182.363 51.639 182.255 51.4242 182.184 51.2451C182.112 51.1019 182.058 50.9766 182.022 50.8691C181.987 50.7617 181.933 50.6364 181.861 50.4932C181.646 49.9919 181.467 49.6517 181.324 49.4727C181.217 49.2936 181.145 49.1146 181.109 48.9355C180.859 48.7923 180.662 48.6133 180.519 48.3984C180.411 48.1478 180.268 47.915 180.089 47.7002C180.125 47.5212 180.107 47.4137 180.035 47.3779C179.964 47.3063 179.946 47.1989 179.981 47.0557C179.91 46.9124 179.82 46.805 179.713 46.7334C179.641 46.6618 179.57 46.5544 179.498 46.4111C179.426 46.3037 179.373 46.1784 179.337 46.0352C179.301 45.8561 179.247 45.7129 179.176 45.6055C178.925 45.3906 178.71 45.2653 178.531 45.2295C178.388 45.1579 178.316 45.0326 178.316 44.8535C177.923 44.8535 177.708 44.764 177.672 44.585C177.529 44.1553 177.564 43.833 177.779 43.6182C177.923 43.5107 178.066 43.4033 178.209 43.2959C178.352 43.1885 178.478 43.099 178.585 43.0273C178.764 42.9915 178.997 42.9915 179.283 43.0273C179.57 43.0632 179.856 43.0452 180.143 42.9736C180.322 42.9736 180.554 42.902 180.841 42.7588C181.378 42.6514 181.843 42.6156 182.237 42.6514C182.381 42.6514 182.488 42.5977 182.56 42.4902C182.631 42.3828 182.774 42.347 182.989 42.3828C183.097 42.4902 183.24 42.5798 183.419 42.6514C183.634 42.6872 183.777 42.7946 183.849 42.9736C183.92 43.0452 183.938 43.1527 183.902 43.2959C183.902 43.4391 183.902 43.5645 183.902 43.6719C184.368 43.9225 184.78 44.3164 185.138 44.8535C185.209 45.0326 185.263 45.1937 185.299 45.3369C185.335 45.4801 185.388 45.6234 185.46 45.7666C185.746 46.0531 185.961 46.2858 186.104 46.4648C186.284 46.6081 186.373 46.805 186.373 47.0557C187.018 47.5928 187.537 48.0762 187.931 48.5059C188.36 48.8997 188.826 49.2399 189.327 49.5264C189.614 49.4189 189.793 49.2578 189.864 49.043C189.972 48.7923 190.133 48.6133 190.348 48.5059C190.419 48.1836 190.527 47.9508 190.67 47.8076C190.849 47.6286 190.956 47.36 190.992 47.002C191.1 46.9303 191.189 46.8408 191.261 46.7334C191.332 46.626 191.404 46.5186 191.476 46.4111C191.547 46.2321 191.619 46.0173 191.69 45.7666C191.798 45.4801 191.887 45.2474 191.959 45.0684C192.031 44.7461 192.102 44.5671 192.174 44.5312C192.245 44.4596 192.299 44.388 192.335 44.3164C192.407 44.0299 192.442 43.8151 192.442 43.6719C192.478 43.5286 192.514 43.3854 192.55 43.2422C192.8 42.8483 192.926 42.3291 192.926 41.6846C192.926 41.04 193.015 40.4671 193.194 39.9658ZM211.617 56.7773C211.653 56.849 211.653 56.9564 211.617 57.0996C211.581 57.2428 211.546 57.3861 211.51 57.5293C211.474 57.959 211.42 58.2992 211.349 58.5498C211.313 58.7646 211.205 59.0511 211.026 59.4092C210.919 59.5882 210.812 59.7673 210.704 59.9463C210.597 60.0895 210.507 60.1969 210.436 60.2686C210.364 60.3044 210.257 60.3223 210.113 60.3223C210.006 60.3223 209.898 60.3581 209.791 60.4297C209.397 60.6087 208.985 60.734 208.556 60.8057C208.126 60.8773 207.786 60.8952 207.535 60.8594C207.141 60.7878 206.855 60.6624 206.676 60.4834C206.497 60.4476 206.3 60.4118 206.085 60.376C205.906 60.376 205.727 60.3402 205.548 60.2686C205.369 60.0895 205.261 59.9821 205.226 59.9463C205.19 59.8747 205.118 59.7493 205.011 59.5703C204.832 59.2839 204.724 59.0511 204.688 58.8721C204.688 58.693 204.671 58.5498 204.635 58.4424C204.527 58.1917 204.438 58.0127 204.366 57.9053C204.295 57.7979 204.241 57.6904 204.205 57.583C204.098 57.2965 204.08 57.0817 204.151 56.9385C204.223 56.7594 204.348 56.5446 204.527 56.2939C204.814 55.8643 205.19 55.4167 205.655 54.9512C206.264 54.7005 206.712 54.5752 206.998 54.5752C207.32 54.5394 207.678 54.5573 208.072 54.6289C208.466 54.5573 208.788 54.5036 209.039 54.4678C209.326 54.3962 209.576 54.3962 209.791 54.4678C209.863 54.5036 209.988 54.6468 210.167 54.8975C210.382 55.1123 210.561 55.2734 210.704 55.3809C210.883 55.5241 210.973 55.6494 210.973 55.7568C211.008 55.8285 211.044 55.9001 211.08 55.9717C211.152 56.0433 211.259 56.1686 211.402 56.3477C211.546 56.4909 211.617 56.6341 211.617 56.7773Z" fill="white"/>
</svg>
